<?xml version="1.0" standalone="no"?>
<!DOCTYPE svg PUBLIC "-//W3C//DTD SVG 20010904//EN"
 "http://www.w3.org/TR/2001/REC-SVG-20010904/DTD/svg10.dtd">
<svg version="1.0" xmlns="http://www.w3.org/2000/svg"
 width="100.000000pt" height="100.000000pt" viewBox="0 0 100.000000 100.000000"
 preserveAspectRatio="xMidYMid meet">
<metadata>
Created by potrace 1.14, written by Peter Selinger 2001-2017
</metadata>
<g transform="translate(0.000000,100.000000) scale(0.100000,-0.100000)"
fill="#000000" stroke="none">
<path d="M730 839 c-14 -6 -62 -46 -107 -91 -57 -55 -88 -78 -99 -74 -8 3 -83
20 -165 37 l-151 31 -24 -23 c-13 -12 -24 -26 -24 -30 0 -4 53 -40 117 -80 64
-41 121 -77 125 -80 13 -9 -102 -141 -118 -135 -8 3 -34 8 -57 11 -35 5 -46 2
-62 -15 -18 -20 -18 -21 1 -35 40 -29 94 -56 94 -46 0 6 -18 23 -40 37 -50 33
-40 49 21 35 24 -6 51 -11 59 -11 8 0 43 35 76 78 94 117 324 353 361 368 51
22 82 18 89 -11 3 -14 3 -37 0 -52 -8 -34 -260 -285 -377 -375 -43 -34 -79
-68 -79 -77 0 -9 5 -36 11 -60 14 -63 -3 -74 -35 -22 -36 57 -54 52 -21 -7 39
-66 42 -68 66 -46 17 16 20 25 14 63 -4 24 -9 49 -12 56 -2 8 25 37 63 69 l68
56 71 -110 c38 -60 75 -117 82 -127 10 -17 13 -16 38 8 l27 27 -35 168 -35
169 78 80 c43 44 83 90 89 102 15 29 14 96 -1 111 -14 14 -73 15 -108 1z
m-312 -163 c56 -13 105 -26 109 -30 7 -7 -56 -76 -69 -76 -5 0 -33 16 -63 37
-31 20 -58 34 -60 31 -3 -3 22 -22 56 -43 41 -25 57 -41 51 -47 -10 -10 -29 0
-200 109 -29 19 -50 38 -47 43 8 13 107 3 223 -24z m266 -296 c24 -128 28
-186 12 -184 -5 1 -43 54 -84 118 -51 80 -72 120 -65 127 7 7 24 -11 53 -58
50 -79 49 -78 55 -72 2 3 -16 36 -40 73 -25 37 -45 71 -45 74 0 4 17 23 37 42
46 44 44 47 77 -120z"/>
<path d="M272 674 c10 -10 20 -15 24 -12 3 4 -5 12 -18 18 -22 12 -22 12 -6
-6z"/>
<path d="M685 250 c3 -5 8 -10 11 -10 2 0 4 5 4 10 0 6 -5 10 -11 10 -5 0 -7
-4 -4 -10z"/>
<path d="M768 772 c15 -15 29 -26 31 -25 8 5 -30 53 -44 53 -9 0 -4 -10 13
-28z"/>
<path d="M305 320 c-32 -33 -56 -63 -52 -67 8 -7 127 105 127 119 0 18 -19 5
-75 -52z"/>
</g>
</svg>
